<?xml version="1.0" encoding="UTF-8"?>
<svg id="katman_1" data-name="katman 1" xmlns="http://www.w3.org/2000/svg" viewBox="0 0 512 512">
  <defs>
    <style>
      .cls-1 {
        fill: #89a1ff;
      }
    </style>
  </defs>
  <rect class="cls-1" x="56" y="56" width="400" height="400"/>
  <path d="m344.32,314.29c0,16.2-2.21,30.47-6.62,42.84-5.89,17.67-15.83,31.29-29.81,40.85-13.99,9.57-31.29,14.35-51.89,14.35s-38.28-5.37-52.99-16.12c-14.72-10.74-24.88-25.24-30.47-43.5-2.65-8.24-4.27-19.43-4.86-33.56,0-2.94,1.47-4.42,4.42-4.42h22.52c2.94,0,4.42,1.48,4.42,4.42.59,8.54,1.62,16.49,3.09,23.85,3.24,12.96,9.49,23.19,18.77,30.69,9.27,7.51,20.82,11.26,34.67,11.26,26.5,0,43.72-11.77,51.67-35.33,3.53-9.71,5.3-21.78,5.3-36.21,0-17.66-2.36-32.09-7.06-43.28-9.43-21.2-26.06-31.8-49.9-31.8-4.42,0-9.87,1.62-16.34,4.86-1.18.59-2.06.88-2.65.88-1.18,0-2.21-.73-3.09-2.21l-11.48-15.46c-1.48-2.35-1.33-4.42.44-6.18l77.72-90.97c.88-1.47.59-2.21-.88-2.21h-124.54c-2.95,0-4.42-1.47-4.42-4.42v-18.55c0-2.94,1.47-4.42,4.42-4.42h163.4c2.94,0,4.42,1.48,4.42,4.42v21.64c0,1.48-.74,3.24-2.21,5.3l-70.66,84.79c-.59.59-.74,1.1-.44,1.54.29.44.88.66,1.77.66,31.5,2.06,52.99,16.93,64.48,44.6,5.89,14.43,8.83,31.65,8.83,51.67Z"/>
</svg>