<?xml version="1.0" encoding="UTF-8"?>
<svg id="katman_1" data-name="katman 1" xmlns="http://www.w3.org/2000/svg" viewBox="0 0 512 512">
  <defs>
    <style>
      .cls-1 {
        fill: #ff9f48;
      }
    </style>
  </defs>
  <rect class="cls-1" x="56" y="56" width="400" height="400"/>
  <path d="m343.88,313.63c0,14.43-1.32,26.79-3.97,37.1-5.01,18.84-15.02,33.78-30.03,44.82-15.01,11.04-33.12,16.56-54.32,16.56s-38.72-5.3-53.44-15.9c-14.73-10.6-24.73-24.73-30.03-42.4-2.06-6.47-3.39-12.95-3.97-19.43v-.88c0-2.35,1.32-3.53,3.97-3.53h23.41c2.94,0,4.56,1.48,4.86,4.42,0,1.77.59,4.71,1.77,8.83,2.94,12.66,9.05,22.74,18.33,30.25s20.83,11.26,34.67,11.26,25.98-3.97,35.55-11.92c9.56-7.95,15.82-18.84,18.77-32.68,1.77-6.77,2.65-15.6,2.65-26.5,0-10-.74-19.58-2.21-28.71-2.06-13.54-7.95-23.85-17.66-30.91-9.71-7.07-21.79-10.6-36.21-10.6-12.96,0-24.59,2.95-34.89,8.83-10.31,5.89-16.93,13.69-19.87,23.4-.88,2.65-2.5,3.97-4.86,3.97h-23.85c-2.95,0-4.42-1.47-4.42-4.42V104.3c0-2.94,1.47-4.42,4.42-4.42h154.57c2.94,0,4.42,1.48,4.42,4.42v18.55c0,2.95-1.48,4.42-4.42,4.42h-125.86c-1.18,0-1.77.59-1.77,1.77l-.44,106.87c0,.59.22,1.03.66,1.32.44.3.95.15,1.54-.44,7.36-6.77,16.04-11.99,26.06-15.68,10.01-3.68,20.6-5.52,31.8-5.52,20.9,0,38.57,5.08,52.99,15.24,14.42,10.16,23.7,24.51,27.82,43.06,2.65,12.96,3.97,26.21,3.97,39.74Z"/>
</svg>