<?xml version="1.0" encoding="UTF-8"?>
<svg id="katman_1" data-name="katman 1" xmlns="http://www.w3.org/2000/svg" viewBox="0 0 512 512">
  <defs>
    <style>
      .cls-1 {
        fill: #5bde00;
      }
    </style>
  </defs>
  <rect class="cls-1" x="56" y="56" width="400" height="400"/>
  <path d="m353.38,301.49v19.43c0,2.95-1.48,4.42-4.42,4.42h-18.99c-1.18,0-1.77.59-1.77,1.77v79.05c0,2.95-1.48,4.42-4.42,4.42h-22.52c-2.95,0-4.42-1.47-4.42-4.42v-79.05c0-1.17-.59-1.77-1.77-1.77h-132.04c-2.95,0-4.42-1.47-4.42-4.42v-16.34c0-1.47.44-3.24,1.32-5.3l90.53-194.75c.88-2.06,2.5-3.09,4.86-3.09h23.41c1.47,0,2.57.52,3.31,1.55.73,1.04.81,2.28.22,3.75l-87.88,188.13c-.3.59-.3,1.1,0,1.55.29.44.73.66,1.32.66h99.37c1.17,0,1.77-.59,1.77-1.77v-71.1c0-2.94,1.47-4.42,4.42-4.42h22.52c2.94,0,4.42,1.48,4.42,4.42v71.1c0,1.18.59,1.77,1.77,1.77h18.99c2.94,0,4.42,1.48,4.42,4.42Z"/>
</svg>