<?xml version="1.0" encoding="UTF-8"?>
<svg id="katman_1" data-name="katman 1" xmlns="http://www.w3.org/2000/svg" viewBox="0 0 512 512">
  <defs>
    <style>
      .cls-1 {
        fill: #eeffbe;
      }
    </style>
  </defs>
  <rect class="cls-1" x="56" y="56" width="400" height="400"/>
  <path d="m271.68,101.43h23.85c2.94,0,4.42,1.48,4.42,4.42v300.3c0,2.95-1.48,4.42-4.42,4.42h-22.52c-2.95,0-4.42-1.47-4.42-4.42V137.2c0-.59-.22-1.03-.66-1.32-.44-.29-.96-.29-1.54,0l-46.81,18.99-1.77.44c-1.77,0-2.95-1.17-3.53-3.53l-2.21-16.78v-.88c0-1.47,1.03-2.94,3.09-4.42l50.79-26.94c1.77-.88,3.68-1.33,5.74-1.33Z"/>
</svg>