<?xml version="1.0" encoding="UTF-8"?>
<svg id="katman_1" data-name="katman 1" xmlns="http://www.w3.org/2000/svg" viewBox="0 0 512 512">
  <defs>
    <style>
      .cls-1 {
        fill: #c5ff6d;
      }
    </style>
  </defs>
  <rect class="cls-1" x="56" y="56" width="400" height="400"/>
  <path d="m205.88,384.95h138.67c2.94,0,4.42,1.48,4.42,4.42v18.55c0,2.95-1.48,4.42-4.42,4.42h-176.21c-2.95,0-4.42-1.47-4.42-4.42v-18.55c0-2.06.73-3.82,2.21-5.3,10.01-11.77,32.53-39.45,67.57-83.03l32.68-40.63c27.67-35.03,41.51-62.27,41.51-81.7,0-15.6-5.3-28.11-15.9-37.54-10.6-9.42-24.44-14.13-41.51-14.13s-30.33,4.79-40.63,14.35c-10.31,9.57-15.31,22.16-15.02,37.76v13.69c0,2.95-1.48,4.42-4.42,4.42h-22.96c-2.95,0-4.42-1.47-4.42-4.42v-17.66c.59-22.67,9.05-40.92,25.39-54.76,16.34-13.83,37.02-20.76,62.05-20.76,17.66,0,33.27,3.39,46.81,10.16,13.54,6.78,23.99,16.12,31.35,28.04,7.36,11.92,11.04,25.39,11.04,40.41,0,25.03-13.84,55.2-41.51,90.53-14.43,18.55-42.25,52.7-83.47,102.46l-9.71,11.48c-.88,1.48-.59,2.21.88,2.21Z"/>
</svg>