<svg xmlns="http://www.w3.org/2000/svg" width="12" height="12" viewBox="0 0 12 12" fill="none">
	<path fill-rule="evenodd" clip-rule="evenodd" d="M9.224,6.533c0.25,0.172,0.453,0.389,0.609,0.648s0.234,0.564,0.234,0.916c0,0.422-0.089,0.779-0.266,1.07
		c-0.179,0.291-0.434,0.52-0.766,0.688c-0.352,0.18-0.757,0.307-1.215,0.381c-0.46,0.074-1,0.111-1.621,0.111H1.882V9.891
		c0.121-0.012,0.273-0.029,0.457-0.053s0.313-0.051,0.387-0.082c0.145-0.059,0.243-0.135,0.296-0.23s0.079-0.221,0.079-0.373V3.293
		c0-0.141-0.021-0.258-0.064-0.352S2.89,2.766,2.726,2.696C2.605,2.645,2.464,2.603,2.304,2.57S2.003,2.51,1.882,2.491V2.034h4.517
		c1.137,0,1.957,0.156,2.461,0.469s0.756,0.773,0.756,1.383c0,0.281-0.057,0.528-0.17,0.741S9.171,5.024,8.96,5.18
		C8.769,5.325,8.54,5.45,8.274,5.555S7.724,5.749,7.419,5.819V5.93C7.724,5.961,8.04,6.029,8.368,6.132S8.981,6.37,9.224,6.533z
		 M7.337,4.032c0-0.461-0.13-0.82-0.389-1.078c-0.261-0.258-0.65-0.387-1.17-0.387c-0.074,0-0.171,0.003-0.289,0.009
		C5.369,2.582,5.267,2.586,5.181,2.59v3.082h0.305c0.633,0,1.1-0.147,1.4-0.442S7.337,4.536,7.337,4.032z M7.747,8.025
		c0-0.58-0.172-1.023-0.516-1.332c-0.344-0.31-0.838-0.464-1.482-0.464c-0.074,0-0.172,0.003-0.295,0.009S5.239,6.249,5.181,6.252
		v3.046c0.035,0.145,0.145,0.267,0.328,0.367c0.184,0.1,0.406,0.148,0.668,0.148c0.465,0,0.843-0.156,1.135-0.469
		C7.602,9.032,7.747,8.592,7.747,8.025z" fill="black"/>
</svg>
