<?xml version="1.0" encoding="utf-8"?>
<!-- Generator: Adobe Illustrator 15.0.0, SVG Export Plug-In . SVG Version: 6.00 Build 0)  -->
<!DOCTYPE svg PUBLIC "-//W3C//DTD SVG 1.1//EN" "http://www.w3.org/Graphics/SVG/1.1/DTD/svg11.dtd">
<svg version="1.1" id="Layer_1" xmlns="http://www.w3.org/2000/svg" xmlns:xlink="http://www.w3.org/1999/xlink" x="0px" y="0px"
	 width="12px" height="12px" viewBox="0 0 12 12" enable-background="new 0 0 12 12" xml:space="preserve">
<title>bold</title>
<desc>Created with Sketch.</desc>
<rect id="Rectangle" fill="none" width="12" height="12"/>
<g>
	<path d="M8.578,2.033L8.49,2.42C8.369,2.424,8.211,2.441,8.016,2.473s-0.34,0.061-0.434,0.088C7.418,2.611,7.301,2.689,7.23,2.795
		S7.109,3.017,7.078,3.143L5.667,9.219C5.659,9.244,5.653,9.275,5.649,9.311S5.644,9.377,5.644,9.404c0,0.09,0.02,0.166,0.059,0.229
		S5.812,9.75,5.913,9.797C5.972,9.824,6.101,9.856,6.3,9.894s0.348,0.06,0.445,0.067l-0.088,0.387h-3.75l0.088-0.387
		c0.109-0.008,0.266-0.02,0.469-0.035s0.348-0.039,0.434-0.07C4.05,9.801,4.166,9.726,4.244,9.63s0.131-0.212,0.158-0.349
		l1.406-6.082c0.008-0.035,0.014-0.07,0.018-0.105s0.006-0.07,0.006-0.105c0-0.078-0.017-0.146-0.05-0.205S5.679,2.672,5.573,2.625
		S5.324,2.534,5.143,2.493S4.827,2.428,4.741,2.42l0.088-0.387H8.578z"/>
</g>
</svg>
