<?xml version="1.0" encoding="utf-8"?>
<!-- Generator: Adobe Illustrator 15.0.0, SVG Export Plug-In . SVG Version: 6.00 Build 0)  -->
<!DOCTYPE svg PUBLIC "-//W3C//DTD SVG 1.1//EN" "http://www.w3.org/Graphics/SVG/1.1/DTD/svg11.dtd">
<svg version="1.1" id="Layer_1" xmlns="http://www.w3.org/2000/svg" xmlns:xlink="http://www.w3.org/1999/xlink" x="0px" y="0px"
	 width="12px" height="12px" viewBox="0 0 12 12" enable-background="new 0 0 12 12" xml:space="preserve">
<title>align-v-b</title>
<desc>Created with Sketch.</desc>
<rect id="Rectangle" fill="none" width="12" height="12"/>
<path d="M11,9.188c0.276,0,0.5,0.224,0.5,0.5s-0.224,0.5-0.5,0.5H1c-0.276,0-0.5-0.224-0.5-0.5s0.224-0.5,0.5-0.5H11z"/>
<path d="M10,0.417c0.276,0,0.5,0.176,0.5,0.394v6.692l0.6-0.629c0.147-0.155,0.412-0.199,0.623-0.117L11.8,6.793
	c0.196,0.117,0.254,0.325,0.147,0.491L11.9,7.346l-1.5,1.575c-0.18,0.188-0.522,0.207-0.734,0.057L9.6,8.921L8.1,7.346
	C7.935,7.172,7.979,6.925,8.2,6.793c0.196-0.114,0.466-0.1,0.64,0.026L8.9,6.873l0.6,0.629V0.81C9.5,0.593,9.724,0.417,10,0.417z"/>
<g>
	<path d="M0.9,9.078l2.749-7.157h1.021L7.6,9.078H6.521L5.685,6.91H2.692L1.906,9.078H0.9z M2.965,6.139h2.427L4.645,4.158
		C4.417,3.556,4.248,3.061,4.137,2.673c-0.091,0.459-0.22,0.915-0.386,1.367L2.965,6.139z"/>
</g>
<g display="none">
	<path display="inline" d="M9.6,0.501c0.276,0,0.5,0.224,0.5,0.5v2.5l0.6-0.8c0.147-0.196,0.412-0.254,0.623-0.147l0.077,0.047
		c0.222,0.166,0.267,0.479,0.101,0.7l-1.5,2c-0.2,0.267-0.601,0.267-0.801,0l-1.5-2C7.534,3.08,7.579,2.767,7.8,2.601
		s0.534-0.121,0.7,0.1l0.6,0.8v-2.5C9.1,0.725,9.323,0.501,9.6,0.501z"/>
	<path display="inline" d="M9.601,11.773c-0.276,0-0.5-0.225-0.5-0.5v-2.5l-0.6,0.799C8.354,9.77,8.089,9.826,7.878,9.721
		L7.801,9.672C7.579,9.508,7.534,9.193,7.7,8.973l1.5-2c0.2-0.266,0.601-0.266,0.801,0l1.5,2c0.165,0.221,0.12,0.535-0.101,0.699
		c-0.221,0.166-0.534,0.121-0.7-0.1l-0.6-0.799v2.5C10.101,11.549,9.877,11.773,9.601,11.773z"/>
	
		<line display="inline" fill="none" stroke="#000000" stroke-linecap="round" stroke-miterlimit="10" x1="7.725" y1="6.147" x2="11.475" y2="6.147"/>
</g>
</svg>
