<?xml version="1.0" encoding="utf-8"?>
<!-- Generator: Adobe Illustrator 15.0.0, SVG Export Plug-In . SVG Version: 6.00 Build 0)  -->
<!DOCTYPE svg PUBLIC "-//W3C//DTD SVG 1.1//EN" "http://www.w3.org/Graphics/SVG/1.1/DTD/svg11.dtd">
<svg version="1.1" xmlns="http://www.w3.org/2000/svg" xmlns:xlink="http://www.w3.org/1999/xlink" x="0px" y="0px" width="12px"
	 height="12px" viewBox="0 0 12 12" enable-background="new 0 0 12 12" xml:space="preserve">
<g id="Layer_1">
	<title>align-v-t</title>
	<desc>Created with Sketch.</desc>
	<rect id="Rectangle" fill="none" width="12" height="12"/>
	<path d="M11,1c0.276,0,0.5-0.224,0.5-0.5S11.276,0,11,0H1C0.724,0,0.5,0.224,0.5,0.5S0.724,1,1,1H11z"/>
	<path d="M10,12c0.276,0,0.5-0.223,0.5-0.5V3l0.6,0.8c0.147,0.196,0.412,0.254,0.623,0.147L11.8,3.9
		c0.196-0.147,0.254-0.411,0.147-0.623L11.9,3.2l-1.5-2c-0.18-0.24-0.522-0.264-0.734-0.072L9.6,1.2l-1.5,2
		C7.935,3.421,7.979,3.734,8.2,3.9c0.196,0.147,0.466,0.128,0.64-0.033L8.9,3.8L9.5,3v8.5C9.5,11.777,9.724,12,10,12z"/>
</g>
<g id="Layer_2">
	<g>
		<path d="M0.9,9.078l2.749-7.157h1.021l2.929,7.157H6.52L5.685,6.91H2.692L1.906,9.078H0.9z M2.965,6.139h2.427L4.645,4.157
			C4.417,3.555,4.248,3.06,4.137,2.673C4.046,3.132,3.917,3.587,3.751,4.04L2.965,6.139z"/>
	</g>
</g>
</svg>
