<?xml version="1.0" encoding="utf-8"?>
<!-- Generator: Adobe Illustrator 15.0.0, SVG Export Plug-In . SVG Version: 6.00 Build 0)  -->
<!DOCTYPE svg PUBLIC "-//W3C//DTD SVG 1.1//EN" "http://www.w3.org/Graphics/SVG/1.1/DTD/svg11.dtd">
<svg version="1.1" id="Layer_1" xmlns="http://www.w3.org/2000/svg" xmlns:xlink="http://www.w3.org/1999/xlink" x="0px" y="0px"
	 width="12px" height="12px" viewBox="0 0 12 12" enable-background="new 0 0 12 12" xml:space="preserve">
<title>align-v-b</title>
<desc>Created with Sketch.</desc>
<rect id="Rectangle" fill="none" width="12" height="12"/>
<path d="M11,11c0.276,0,0.5,0.224,0.5,0.5S11.276,12,11,12H1c-0.276,0-0.5-0.224-0.5-0.5S0.724,11,1,11H11z"/>
<path d="M10,0c0.276,0,0.5,0.224,0.5,0.5V9l0.6-0.799c0.147-0.197,0.412-0.254,0.623-0.148L11.8,8.1
	c0.196,0.148,0.254,0.412,0.147,0.623L11.9,8.801l-1.5,2c-0.18,0.24-0.522,0.264-0.734,0.072L9.6,10.801l-1.5-2
	C7.935,8.58,7.979,8.266,8.2,8.1c0.196-0.146,0.466-0.127,0.64,0.033L8.9,8.201L9.5,9V0.5C9.5,0.224,9.724,0,10,0z"/>
<g>
	<path d="M0.9,9.078l2.749-7.157h1.021L7.6,9.078H6.521L5.685,6.91H2.692L1.906,9.078H0.9z M2.965,6.139h2.427L4.645,4.158
		C4.417,3.556,4.248,3.061,4.137,2.673c-0.091,0.459-0.22,0.915-0.386,1.367L2.965,6.139z"/>
</g>
<g display="none">
	<path display="inline" d="M9.6,0.501c0.276,0,0.5,0.224,0.5,0.5v2.5l0.6-0.8c0.147-0.196,0.412-0.254,0.623-0.147l0.077,0.047
		c0.222,0.166,0.267,0.479,0.101,0.7l-1.5,2c-0.2,0.267-0.601,0.267-0.801,0l-1.5-2C7.534,3.08,7.579,2.767,7.8,2.601
		s0.534-0.121,0.7,0.1l0.6,0.8v-2.5C9.1,0.725,9.323,0.501,9.6,0.501z"/>
	<path display="inline" d="M9.601,11.773c-0.276,0-0.5-0.225-0.5-0.5v-2.5l-0.6,0.799C8.354,9.77,8.089,9.826,7.878,9.721
		L7.801,9.672C7.579,9.508,7.534,9.193,7.7,8.973l1.5-2c0.2-0.266,0.601-0.266,0.801,0l1.5,2c0.165,0.221,0.12,0.535-0.101,0.699
		c-0.221,0.166-0.534,0.121-0.7-0.1l-0.6-0.799v2.5C10.101,11.549,9.877,11.773,9.601,11.773z"/>
	
		<line display="inline" fill="none" stroke="#000000" stroke-linecap="round" stroke-miterlimit="10" x1="7.725" y1="6.147" x2="11.475" y2="6.147"/>
</g>
</svg>
