<?xml version="1.0" encoding="utf-8"?>
<!-- Generator: Adobe Illustrator 15.0.0, SVG Export Plug-In . SVG Version: 6.00 Build 0)  -->
<!DOCTYPE svg PUBLIC "-//W3C//DTD SVG 1.1//EN" "http://www.w3.org/Graphics/SVG/1.1/DTD/svg11.dtd">
<svg version="1.1" id="Layer_1" xmlns="http://www.w3.org/2000/svg" xmlns:xlink="http://www.w3.org/1999/xlink" x="0px" y="0px"
	 width="12px" height="12px" viewBox="0 0 12 12" enable-background="new 0 0 12 12" xml:space="preserve">
<title>bold</title>
<desc>Created with Sketch.</desc>
<rect id="Rectangle" fill="none" width="12" height="12"/>
<g>
	<path d="M10.553,1.603c-0.109,0.004-0.27,0.027-0.48,0.07S9.689,1.781,9.557,1.867c-0.133,0.09-0.225,0.275-0.275,0.557
		S9.205,3.048,9.205,3.455V7.07c0,0.461-0.096,0.861-0.287,1.201S8.475,8.891,8.162,9.109C7.854,9.32,7.527,9.471,7.188,9.563
		C6.844,9.654,6.517,9.701,6.204,9.701c-0.5,0-0.945-0.066-1.336-0.197S4.149,9.197,3.884,8.975
		C3.622,8.752,3.425,8.496,3.292,8.209C3.16,7.922,3.093,7.623,3.093,7.311V2.394c0-0.137-0.022-0.251-0.067-0.343
		S2.89,1.875,2.753,1.796C2.656,1.742,2.531,1.698,2.378,1.665S2.101,1.611,2.003,1.603V1.187h3.462v0.416
		C5.356,1.607,5.219,1.625,5.054,1.656C4.887,1.687,4.765,1.716,4.687,1.744C4.554,1.791,4.465,1.869,4.421,1.978
		C4.375,2.087,4.353,2.206,4.353,2.335v4.589c0,0.223,0.024,0.457,0.074,0.701c0.048,0.244,0.145,0.471,0.289,0.682
		c0.152,0.215,0.359,0.391,0.621,0.527s0.621,0.205,1.078,0.205c0.431,0,0.79-0.068,1.083-0.205c0.289-0.137,0.52-0.316,0.688-0.539
		c0.16-0.211,0.273-0.432,0.34-0.662s0.1-0.463,0.1-0.697V3.529c0-0.433-0.031-0.788-0.094-1.063
		C8.469,2.191,8.377,2.011,8.256,1.925C8.119,1.828,7.932,1.751,7.697,1.697C7.459,1.642,7.279,1.611,7.154,1.603V1.187h3.398V1.603
		z"/>
	<path d="M1.57,10.857v-0.592h9.077v0.592H1.57z"/>
</g>
</svg>
