<?xml version="1.0" encoding="utf-8"?>
<!-- Generator: Adobe Illustrator 15.0.0, SVG Export Plug-In . SVG Version: 6.00 Build 0)  -->
<!DOCTYPE svg PUBLIC "-//W3C//DTD SVG 1.1//EN" "http://www.w3.org/Graphics/SVG/1.1/DTD/svg11.dtd">
<svg version="1.1" xmlns="http://www.w3.org/2000/svg" xmlns:xlink="http://www.w3.org/1999/xlink" x="0px" y="0px" width="50px"
	 height="50px" viewBox="0 0 50 50" enable-background="new 0 0 50 50" xml:space="preserve">
<g id="Layer_1">
	<title>widget-simple</title>
	<g>
		<path d="M13.744,49.388c0.041-0.102,0.331-3.489,0.643-7.495c0.697-8.973,1.072-15.351,1.12-19.043
			c0.005-0.53-0.007-1.567-0.021-1.588c-0.006-0.01-0.171,0.013-0.37,0.05c-0.196,0.037-0.651,0.089-1.013,0.117
			c-0.95,0.07-1.579,0.053-2.611-0.082c-0.273-0.034-0.5-0.056-0.5-0.05c-0.008,0.041-0.002,0.632,0.01,1.161
			c0.088,4.024,0.853,13.282,2.091,25.249c0.089,0.875,0.187,1.64,0.211,1.697c0.038,0.086,0.064,0.109,0.155,0.129
			C13.597,49.563,13.691,49.517,13.744,49.388z"/>
		<path d="M15.39,20.078c-0.183-1.202-0.325-2.347-0.571-4.601c-0.207-1.894-0.344-2.977-0.38-2.981
			c-0.007,0.001-0.101,0.03-0.209,0.071c-0.595,0.207-1.47,0.214-2.082,0.008c-0.131-0.042-0.252-0.076-0.269-0.073
			c-0.041,0.007-0.146,0.946-0.326,2.919c-0.187,2.07-0.314,3.303-0.438,4.27c-0.112,0.865-0.113,0.833-0.003,0.848
			c0.048,0.005,0.268,0.035,0.489,0.067c1.237,0.169,2.518,0.146,3.54-0.067c0.156-0.032,0.286-0.061,0.295-0.065
			C15.441,20.468,15.423,20.291,15.39,20.078z"/>
		<path d="M15.997,10.792c0.447-0.717,0.581-1.562,0.382-2.402c-0.07-0.304-0.299-0.8-0.485-1.057
			c-0.639-0.882-0.876-1.255-1.117-1.776c-0.227-0.488-0.345-0.931-0.39-1.414c-0.084-0.905,0.124-1.734,0.712-2.816
			c0.146-0.276,0.189-0.381,0.176-0.444c-0.024-0.123-0.137-0.203-0.277-0.191l-0.116,0.012l-0.974,1.137
			c-0.531,0.625-1.121,1.332-1.303,1.567c-2.137,2.736-2.98,4.614-2.794,6.198c0.091,0.778,0.405,1.357,1.032,1.903
			c0.678,0.589,1.378,0.849,2.293,0.855c0.631,0.005,1.401-0.237,1.938-0.609C15.412,11.518,15.795,11.124,15.997,10.792z"/>
	</g>
	<g>
		<path fill="#FFFFFF" d="M13.744,49.388c0.041-0.102,0.331-3.489,0.643-7.495c0.697-8.973,1.072-15.351,1.12-19.043
			c0.005-0.53-0.007-1.567-0.021-1.588c-0.006-0.01-0.171,0.013-0.37,0.05c-0.196,0.037-0.651,0.089-1.013,0.117
			c-0.95,0.07-1.579,0.053-2.611-0.082c-0.273-0.034-0.5-0.056-0.5-0.05c-0.008,0.041-0.002,0.632,0.01,1.161
			c0.088,4.024,0.853,13.282,2.091,25.249c0.089,0.875,0.187,1.64,0.211,1.697c0.038,0.086,0.064,0.109,0.155,0.129
			C13.597,49.563,13.691,49.517,13.744,49.388z"/>
		<path fill="#FFFFFF" d="M15.39,20.078c-0.183-1.202-0.325-2.347-0.571-4.601c-0.207-1.894-0.344-2.977-0.38-2.981
			c-0.007,0.001-0.101,0.03-0.209,0.071c-0.595,0.207-1.47,0.214-2.082,0.008c-0.131-0.042-0.252-0.076-0.269-0.073
			c-0.041,0.007-0.146,0.946-0.326,2.919c-0.187,2.07-0.314,3.303-0.438,4.27c-0.112,0.865-0.113,0.833-0.003,0.848
			c0.048,0.005,0.268,0.035,0.489,0.067c1.237,0.169,2.518,0.146,3.54-0.067c0.156-0.032,0.286-0.061,0.295-0.065
			C15.441,20.468,15.423,20.291,15.39,20.078z"/>
		<path fill="#FFFFFF" d="M15.997,10.792c0.447-0.717,0.581-1.562,0.382-2.402c-0.07-0.304-0.299-0.8-0.485-1.057
			c-0.639-0.882-0.876-1.255-1.117-1.776c-0.227-0.488-0.345-0.931-0.39-1.414c-0.084-0.905,0.124-1.734,0.712-2.816
			c0.146-0.276,0.189-0.381,0.176-0.444c-0.024-0.123-0.137-0.203-0.277-0.191l-0.116,0.012l-0.974,1.137
			c-0.531,0.625-1.121,1.332-1.303,1.567c-2.137,2.736-2.98,4.614-2.794,6.198c0.091,0.778,0.405,1.357,1.032,1.903
			c0.678,0.589,1.378,0.849,2.293,0.855c0.631,0.005,1.401-0.237,1.938-0.609C15.412,11.518,15.795,11.124,15.997,10.792z"/>
	</g>
</g>
<g id="Layer_2">
	<g>
		<path fill="#FFFFFF" d="M10.001,22.479c-0.017-0.726-0.017-1.042-0.01-1.202v-0.981h0.053c0.011-0.172,0.031-0.366,0.064-0.625
			l0.014-0.109c0.076-0.593,0.154-1.295,0.244-2.201c-1.731-0.292-3.299-0.772-3.896-1.084c-0.469-0.246-1.432-0.638-2.06-0.583
			c-1.912,0.167-4.418,1.784-4.415,6.522c0.003,4.737-0.746,4.971,5.551,12.468c1.975,2.352,3.864,4.148,5.793,5.535
			C10.549,31.945,10.071,25.655,10.001,22.479z M6.47,26.918c-1.423,0-2.577-1.153-2.577-2.577c0-1.423,1.154-2.577,2.577-2.577
			c1.423,0,2.577,1.154,2.577,2.577C9.047,25.765,7.893,26.918,6.47,26.918z"/>
		<path fill="#FFFFFF" d="M31.315,5.507c-8.812,0-11.222,7.315-11.222,7.315c-1.284,2.2-2.126,3.679-4.077,4.363
			c0.134,1.143,0.238,1.929,0.362,2.741c0.045,0.292,0.076,0.589-0.009,0.863c0.125,0.191,0.153,0.309,0.137,2.069
			c-0.048,3.716-0.426,10.145-1.123,19.111c-0.014,0.181-0.026,0.338-0.04,0.51c5.106,2.179,11.002,2.241,19.698,2.013
			C46.616,44.188,50.003,30.072,50,24.919C49.997,19.766,45.041,5.507,31.315,5.507z M20.566,39.077
			c-2.021,0-3.658-1.639-3.658-3.658c0-2.021,1.638-3.657,3.658-3.657c2.02,0,3.657,1.637,3.657,3.657
			C24.224,37.438,22.586,39.077,20.566,39.077z M23.642,28.021c-2.021,0-3.658-1.639-3.658-3.658c0-2.02,1.638-3.658,3.658-3.658
			c2.02,0,3.657,1.638,3.657,3.658C27.299,26.383,25.662,28.021,23.642,28.021z M33.902,40.99c-2.021,0-3.658-1.639-3.658-3.658
			c0-2.021,1.638-3.658,3.658-3.658c2.02,0,3.657,1.638,3.657,3.658C37.56,39.352,35.922,40.99,33.902,40.99z M33.902,19.021
			c-2.021,0-3.658-1.638-3.658-3.658s1.638-3.658,3.658-3.658c2.02,0,3.657,1.638,3.657,3.658S35.922,19.021,33.902,19.021z
			 M42.013,28.021c-2.021,0-3.658-1.639-3.658-3.658c0-2.02,1.638-3.658,3.658-3.658c2.02,0,3.657,1.638,3.657,3.658
			C45.67,26.383,44.032,28.021,42.013,28.021z"/>
	</g>
</g>
</svg>
