<?xml version="1.0" encoding="utf-8"?>
<!-- Generator: Adobe Illustrator 15.0.0, SVG Export Plug-In . SVG Version: 6.00 Build 0)  -->
<!DOCTYPE svg PUBLIC "-//W3C//DTD SVG 1.1//EN" "http://www.w3.org/Graphics/SVG/1.1/DTD/svg11.dtd">
<svg version="1.1" id="Layer_1" xmlns="http://www.w3.org/2000/svg" xmlns:xlink="http://www.w3.org/1999/xlink" x="0px" y="0px"
	 width="50px" height="50px" viewBox="0 0 50 50" enable-background="new 0 0 50 50" xml:space="preserve">
<title>widget-simple</title>
<polygon fill="#000000" points="12.791,46.923 43.021,10.249 33.108,2.077 30.607,5.11 34.561,8.369 33.925,9.14 29.972,5.881 
	27.56,8.808 29.81,10.662 29.174,11.434 26.924,9.579 24.512,12.504 28.466,15.763 27.829,16.535 23.876,13.276 21.464,16.202 
	23.714,18.057 23.078,18.829 20.828,16.974 18.417,19.899 22.37,23.158 21.733,23.93 17.78,20.671 15.369,23.597 17.619,25.451 
	16.983,26.223 14.733,24.368 12.321,27.294 16.274,30.553 15.638,31.324 11.685,28.065 9.273,30.991 11.523,32.847 10.887,33.618 
	8.637,31.763 6.225,34.688 10.178,37.947 9.542,38.719 5.589,35.46 2.877,38.751 "/>
</svg>
